Coordinates
version=1
nRows=65
nColumns=12
inDegrees=yes

Units are S.I. units (second, meters, Newtons, ...)
Angles are in degrees

endheader
time	SC_y	SC_z	SC_x	AC_y	AC_z	AC_x	GH_y	GH_z	GH_yy	EL_x	PS_y
       0.0              -13.52          20.76          50.79          46.29         -12.49         -9.957          125.7          62.65          37.26          28.71          76.87
   0.04765              -13.52          20.76          50.78          46.29         -12.49         -9.953          125.7          62.64          37.24          28.72          76.88
    0.0953              -13.52          20.76          50.78          46.29         -12.49         -9.949          125.6          62.63          37.22          28.72          76.89
     0.143              -13.53          20.77          50.78          46.29         -12.49         -9.944          125.6          62.62           37.2          28.73           76.9
    0.1906              -13.53          20.77          50.77          46.29         -12.49         -9.939          125.5          62.62          37.18          28.73          76.92
    0.2383              -13.53          20.77          50.77          46.29         -12.49         -9.934          125.5          62.61          37.15          28.74          76.93
    0.2859              -13.53          20.78          50.76          46.29         -12.49         -9.929          125.4           62.6          37.13          28.75          76.95
    0.3336              -13.53          20.78          50.76          46.29         -12.49         -9.923          125.3          62.59           37.1          28.75          76.96
    0.3812              -13.53          20.78          50.75          46.29         -12.49         -9.916          125.3          62.58          37.07          28.76          76.98
    0.4289              -13.54          20.79          50.75          46.29          -12.5          -9.91          125.2          62.56          37.04          28.77           77.0
    0.4765              -13.54          20.79          50.74          46.29          -12.5         -9.903          125.1          62.55           37.0          28.78          77.02
    0.5242              -13.54           20.8          50.73          46.29          -12.5         -9.895          125.0          62.54          36.97          28.79          77.04
    0.5718              -13.54          20.81          50.72          46.29          -12.5         -9.886          125.0          62.52          36.93           28.8          77.06
    0.6195              -13.55          20.81          50.72          46.29          -12.5         -9.877          124.9          62.51          36.88          28.81          77.08
    0.6671              -13.55          20.82          50.71          46.29         -12.51         -9.867          124.7          62.49          36.84          28.82          77.11
    0.7148              -13.55          20.83           50.7           46.3         -12.51         -9.857          124.6          62.47          36.79          28.84          77.14
    0.7624              -13.56          20.83          50.69           46.3         -12.51         -9.845          124.5          62.45          36.73          28.85          77.17
    0.8101              -13.56          20.84          50.68           46.3         -12.51         -9.833          124.4          62.43          36.67          28.87          77.21
    0.8577              -13.57          20.85          50.67           46.3         -12.52         -9.819          124.2           62.4          36.61          28.89          77.24
    0.9054              -13.57          20.86          50.65           46.3         -12.52         -9.804          124.1          62.38          36.54           28.9          77.28
     0.953              -13.58          20.88          50.64           46.3         -12.52         -9.787          123.9          62.35          36.46          28.93          77.33
     1.001              -13.58          20.89          50.62           46.3         -12.53         -9.769          123.7          62.32          36.37          28.95          77.38
     1.048              -13.59           20.9           50.6           46.3         -12.53         -9.749          123.5          62.28          36.28          28.97          77.43
     1.096               -13.6          20.92          50.58           46.3         -12.54         -9.727          123.2          62.24          36.17           29.0          77.49
     1.144               -13.6          20.93          50.56          46.31         -12.54         -9.702          122.9           62.2          36.05          29.03          77.56
     1.191              -13.61          20.95          50.54          46.31         -12.55         -9.674          122.6          62.15          35.92          29.07          77.63
     1.239              -13.62          20.98          50.51          46.31         -12.56         -9.644          122.3          62.09          35.77          29.11          77.72
     1.287              -13.64           21.0          50.48          46.31         -12.57         -9.609          121.9          62.03          35.61          29.15          77.81
     1.334              -13.65          21.03          50.44          46.32         -12.58         -9.569          121.5          61.96          35.42           29.2          77.92
     1.382              -13.66          21.06          50.41          46.32         -12.59         -9.525          121.0          61.88          35.21          29.26          78.04
      1.43              -13.68          21.09          50.36          46.32          -12.6         -9.474          120.4          61.79          34.97          29.32          78.18
     1.477               -13.7          21.14          50.31          46.33         -12.61         -9.415          119.8          61.69          34.69          29.39          78.33
     1.525              -13.72          21.18          50.25          46.33         -12.63         -9.348          119.1          61.57          34.37          29.48          78.52
     1.572              -13.75          21.24          50.18          46.34         -12.64         -9.269          118.2          61.43           34.0          29.58          78.73
      1.62              -13.78           21.3           50.1          46.34         -12.67         -9.178          117.2          61.27          33.56          29.69          78.98
     1.668              -13.81          21.38           50.0          46.35         -12.69         -9.069          116.0          61.08          33.05          29.83          79.27
     1.715              -13.85          21.47          49.89          46.36         -12.72         -8.941          114.6          60.85          32.44          29.99          79.62
     1.763               -13.9          21.58          49.75          46.37         -12.76         -8.787          112.9          60.58           31.7          30.19          80.04
     1.811              -13.96          21.71          49.59          46.39          -12.8           -8.6          110.9          60.25          30.82          30.42          80.54
     1.858              -14.04          21.87          49.39           46.4         -12.85         -8.372          108.4          59.84          29.74          30.71          81.16
     1.906              -14.13          22.06          49.14          46.42         -12.92         -8.091          105.4          59.35           28.4          31.06          81.92
     1.954              -14.25          22.31          48.83          46.45          -13.0         -7.741          101.5          58.73          26.73          31.51          82.87
     2.001              -14.39          22.62          48.44          46.48          -13.1         -7.299          96.71          57.95          24.64          32.06          84.06
     2.049              -14.57          23.01          47.94          46.52         -13.23         -6.738          90.58          56.95          21.97          32.77          85.58
     2.097              -14.81          23.51          47.31          46.57          -13.4         -6.019          82.74          55.68          18.56          33.68          87.53
     2.144              -15.11          24.16          46.49          46.64         -13.61         -5.097          72.67          54.05          14.18          34.84          90.02
     2.192              -15.49          24.98          45.45          46.73         -13.89         -3.919          59.81          51.97           8.58          36.32          93.21
      2.24              -15.98          26.02          44.14          46.83         -14.23         -2.438          43.64          49.35          1.544          38.19          97.22
     2.287              -16.57          27.28          42.55          46.96         -14.65        -0.6328          23.94          46.15          -7.03          40.47          102.1
     2.335              -17.25          28.74           40.7          47.12         -15.14          1.459          1.104          42.45         -16.97          43.11          107.8
     2.383              -17.99          30.33           38.7          47.28         -15.66          3.725         -23.62          38.44         -27.73          45.96          113.9
      2.43              -18.73          31.91           36.7          47.44         -16.19           5.99         -48.35          34.44         -38.49          48.82          120.0
     2.478              -19.41          33.38          34.85           47.6         -16.67          8.082         -71.19          30.74         -48.43          51.46          125.7
     2.526               -20.0          34.64          33.25          47.73         -17.09          9.887         -90.89          27.54          -57.0          53.73          130.6
     2.573              -20.48          35.68          31.94          47.83         -17.44          11.37         -107.1          24.92         -64.04           55.6          134.6
     2.621              -20.87           36.5           30.9          47.92         -17.71          12.55         -119.9          22.84         -69.64          57.09          137.8
     2.668              -21.17          37.14          30.09          47.99         -17.92          13.47         -130.0          21.21         -74.02          58.25          140.3
     2.716               -21.4          37.65          29.45          48.04         -18.09          14.19         -137.8          19.94         -77.43          59.15          142.2
     2.764              -21.59          38.04          28.96          48.08         -18.22          14.75         -144.0          18.94          -80.1          59.86          143.7
     2.811              -21.73          38.35          28.57          48.11         -18.32          15.19         -148.8          18.16         -82.19          60.42          144.9
     2.859              -21.85          38.59          28.26          48.14         -18.41          15.54         -152.6          17.54         -83.86          60.86          145.9
     2.907              -21.94          38.79          28.01          48.16         -18.47          15.82         -155.7          17.04          -85.2          61.22          146.7
     2.954              -22.01          38.95          27.81          48.17         -18.52          16.05         -158.2          16.64         -86.28           61.5          147.3
     3.002              -22.07          39.08          27.64          48.19         -18.57          16.24         -160.2          16.31         -87.16          61.74          147.8
      3.05              -22.12          39.19          27.51           48.2          -18.6          16.39         -161.9          16.04          -87.9          61.93          148.2
